<svg width="1498" height="359" viewBox="0 0 1498 359" fill="none" xmlns="http://www.w3.org/2000/svg">
<g clip-path="url(#clip0_603_10800)">
<mask id="mask0_603_10800" style="mask-type:luminance" maskUnits="userSpaceOnUse" x="0" y="-434" width="1498" height="843">
<path d="M0 -433.87H1498V409H0V-433.87Z" fill="white"/>
</mask>
<g mask="url(#mask0_603_10800)">
<path opacity="0.2" d="M1883.19 328.382C1776.75 255.957 1653.25 182.206 1519.29 198.845C1428.95 210.107 1351.4 263.012 1273.11 304.399C1237.32 323.199 1200.05 339.948 1160.4 348.353C1136.81 353.418 1112.37 355.338 1088.29 353.543C1055.89 351.326 1024.17 343.522 993.018 334.586C961.49 325.439 930.328 315.067 898.363 307.302C796.328 281.345 728.84 303.056 644.093 361.402C598.49 392.643 556.968 425.85 509.336 451.55L502.353 455.468L495.245 459.167L488.137 462.858C485.773 464.091 483.41 465.34 480.983 466.464C307.792 552.28 102.153 567.366 -83.7864 504.502L-84.7461 506.929C-64.804 515.943 -44.3313 523.849 -23.4919 530.811C124.046 578.917 287.179 573.219 432.36 518.324C452.708 510.66 473.899 501.24 493.459 491.516C513.307 481.44 532.75 470.561 551.529 458.589C607.642 422.955 654.696 378.688 712.057 347.198C739.591 332.135 769.239 320.616 800.455 316.628C901.632 304.274 995.889 358.147 1096.03 361.839C1226.83 366.662 1338.08 278.051 1457.16 237.773C1487.25 227.549 1518.11 220.674 1549.74 219.339C1613.82 216.342 1676.95 234.183 1735.67 258.642C1785.87 279.456 1833.49 305.273 1881.84 330.637L1883.18 328.405L1883.19 328.382Z" fill="#3C4045"/>
<path opacity="0.2" d="M1856.97 181.527C1827.44 256.691 1754.51 308.894 1676.21 322.255C1634.76 329.224 1591.11 325.166 1552.85 307.325C1448.66 257.713 1382.62 144.776 1249.78 171.03C1134.71 195.419 1061.07 294.534 975.924 366.833C961.747 378.813 946.775 390.231 931.296 400.447C872.679 439.671 808.218 453.594 738.6 443.831C600.667 426.185 486.374 337.864 356.048 295.673C313.394 281.922 268.111 273.642 223.069 274.422C94.811 276.522 -20.5973 339.167 -138.479 381.966C-191.081 401.235 -245.173 417.117 -301.262 422.564L-301.137 424.804C-225.316 423.313 -151.836 400.728 -80.8607 375.707C34.0952 335.444 153.319 282.788 277.606 301.823C376.225 316.706 464.185 367.27 554.354 407.197C666.485 457.286 794.798 491.399 908.155 425.686C978.319 385.478 1030.46 322.45 1090.59 269.825C1137.01 229.953 1190.98 194.638 1252.23 184.945C1417.31 160.432 1475.56 364.617 1659.94 340.845C1723.55 333.072 1784.56 299.966 1824.12 249.378C1839.85 229.43 1851.81 206.517 1859.08 182.245L1856.96 181.519L1856.97 181.527Z" fill="#3C4045"/>
<path opacity="0.2" d="M1813.63 424.437C1627.12 359.919 1535.69 131.392 1329.62 108.673C1291.1 104.599 1250.89 109.969 1215.86 126.732C1130.49 167.651 1081.21 255.668 999.267 301.347C959.188 323.894 913.234 334.102 867.545 335.959C691.842 343.342 528.303 239.474 351.64 262.083C246.718 275.608 154.2 332.073 52.149 355.892C-34.3916 374.981 -141.522 368.129 -199.616 292.614L-201.177 293.714C-175.274 333.704 -131.426 358.787 -85.6747 369.409C72.8715 407.439 203.697 302.635 354.285 282.437C382.068 278.707 411.076 278.589 439.086 280.361C537.072 287.283 631.267 321.209 727.927 338.082C808.312 351.708 894.314 354.557 970.883 322.598C1088.54 276.186 1149.57 126.623 1285.74 121.745C1328.01 119.576 1370.3 130.518 1408.85 147.359C1539.56 206.235 1620.67 336.146 1747.77 401.071C1768.65 411.661 1790.52 420.387 1813.08 426.263L1813.63 424.429V424.437Z" fill="#3C4045"/>
<path opacity="0.2" d="M1874.98 279.229C1853.7 234.932 1804.01 211.737 1756.61 208.826C1732.43 207.187 1708.18 211.089 1685.03 217.793C1605.01 241.105 1540.82 298.779 1465.29 329.981C1449.53 336.443 1433.09 341.828 1416.41 345.191C1409.63 346.854 1402.32 347.681 1395.4 348.867L1391.15 349.281C1359.72 352.894 1328.12 350.881 1296.81 345.449C1186.76 326.5 1086.16 270.551 975.604 252.96C934.604 246.248 892.301 246.63 851.519 254.661C699.184 283.81 581.24 396.809 435.177 442.215C391.657 455.771 345.843 463.919 300.24 459.9C177.536 451.557 103.011 339.494 -11.6641 309.284C-54.0996 298.038 -96.2778 300.558 -134.719 323.363C-160.473 338.519 -181.57 363.641 -186.79 393.524L-184.917 393.922C-177.848 365.569 -156.564 342.967 -131.169 329.653C-59.5455 291.911 15.7992 326.68 76.7959 368.511C146.656 416.991 209.135 473.253 298.414 480.238C407.542 489.548 510.584 438.196 601.915 384.564C686.981 335.022 772.047 278.058 870.471 260.202C1020.32 233.121 1152.75 327.756 1294.26 358.74C1354.07 371.906 1414.92 370.111 1471.86 345.87C1548.51 314.036 1610.4 256.058 1688.85 230.132C1710.58 223.077 1733.27 218.441 1756.16 218.972C1790.38 219.815 1825.28 230.475 1851.28 253.373C1859.92 261.014 1867.37 270.043 1873.29 280.095L1874.98 279.206V279.229Z" fill="#3C4045"/>
<path d="M1883.19 328.382C1776.75 255.957 1653.25 182.206 1519.29 198.845C1428.95 210.107 1351.4 263.012 1273.11 304.399C1237.32 323.199 1200.05 339.948 1160.4 348.353C1136.81 353.418 1112.37 355.338 1088.29 353.543C1055.89 351.326 1024.17 343.522 993.018 334.586C961.49 325.439 930.328 315.067 898.363 307.302C796.328 281.345 728.84 303.056 644.093 361.402C598.49 392.643 556.968 425.85 509.336 451.55L502.353 455.468L495.245 459.167L488.137 462.858C485.773 464.091 483.41 465.34 480.983 466.464C307.792 552.28 102.153 567.366 -83.7864 504.502L-84.7461 506.929C-64.804 515.943 -44.3313 523.849 -23.4919 530.811C124.046 578.917 287.179 573.219 432.36 518.324C452.708 510.66 473.899 501.24 493.459 491.516C513.307 481.44 532.75 470.561 551.529 458.589C607.642 422.955 654.696 378.688 712.057 347.198C739.591 332.135 769.239 320.616 800.455 316.628C901.632 304.274 995.889 358.147 1096.03 361.839C1226.83 366.662 1338.08 278.051 1457.16 237.773C1487.25 227.549 1518.11 220.674 1549.74 219.339C1613.82 216.342 1676.95 234.183 1735.67 258.642C1785.87 279.456 1833.49 305.273 1881.84 330.637L1883.18 328.405L1883.19 328.382Z" fill="#3C4045"/>
<path d="M1856.97 181.527C1827.44 256.691 1754.51 308.894 1676.21 322.255C1634.76 329.224 1591.11 325.166 1552.85 307.325C1448.66 257.713 1382.62 144.776 1249.78 171.03C1134.71 195.419 1061.07 294.534 975.924 366.833C961.747 378.813 946.775 390.231 931.296 400.447C872.679 439.671 808.218 453.594 738.6 443.831C600.667 426.185 486.374 337.864 356.048 295.673C313.394 281.922 268.111 273.642 223.069 274.422C94.811 276.522 -20.5973 339.167 -138.479 381.966C-191.081 401.235 -245.173 417.117 -301.262 422.564L-301.137 424.804C-225.316 423.313 -151.836 400.728 -80.8607 375.707C34.0952 335.444 153.319 282.788 277.606 301.823C376.225 316.706 464.185 367.27 554.354 407.197C666.485 457.286 794.798 491.399 908.155 425.686C978.319 385.478 1030.46 322.45 1090.59 269.825C1137.01 229.953 1190.98 194.638 1252.23 184.945C1417.31 160.432 1475.56 364.617 1659.94 340.845C1723.55 333.072 1784.56 299.966 1824.12 249.378C1839.85 229.43 1851.81 206.517 1859.08 182.245L1856.96 181.519L1856.97 181.527Z" fill="#3C4045"/>
<path d="M1813.63 424.437C1627.12 359.919 1535.69 131.392 1329.62 108.673C1291.1 104.599 1250.89 109.969 1215.86 126.732C1130.49 167.651 1081.21 255.668 999.267 301.347C959.188 323.894 913.234 334.102 867.545 335.959C691.842 343.342 528.303 239.474 351.64 262.083C246.718 275.608 154.2 332.073 52.149 355.892C-34.3916 374.981 -141.522 368.129 -199.616 292.614L-201.177 293.714C-175.274 333.704 -131.426 358.787 -85.6747 369.409C72.8715 407.439 203.697 302.635 354.285 282.437C382.068 278.707 411.076 278.589 439.086 280.361C537.072 287.283 631.267 321.209 727.927 338.082C808.312 351.708 894.314 354.557 970.883 322.598C1088.54 276.186 1149.57 126.623 1285.74 121.745C1328.01 119.576 1370.3 130.518 1408.85 147.359C1539.56 206.235 1620.67 336.146 1747.77 401.071C1768.65 411.661 1790.52 420.387 1813.08 426.263L1813.63 424.429V424.437Z" fill="#3C4045"/>
<path d="M1874.98 279.229C1853.7 234.932 1804.01 211.737 1756.61 208.826C1732.43 207.187 1708.18 211.089 1685.03 217.793C1605.01 241.105 1540.82 298.779 1465.29 329.981C1449.53 336.443 1433.09 341.828 1416.41 345.191C1409.63 346.854 1402.32 347.681 1395.4 348.867L1391.15 349.281C1359.72 352.894 1328.12 350.881 1296.81 345.449C1186.76 326.5 1086.16 270.551 975.604 252.96C934.604 246.248 892.301 246.63 851.519 254.661C699.184 283.81 581.24 396.809 435.177 442.215C391.657 455.771 345.843 463.919 300.24 459.9C177.536 451.557 103.011 339.494 -11.6641 309.284C-54.0996 298.038 -96.2778 300.558 -134.719 323.363C-160.473 338.519 -181.57 363.641 -186.79 393.524L-184.917 393.922C-177.848 365.569 -156.564 342.967 -131.169 329.653C-59.5455 291.911 15.7992 326.68 76.7959 368.511C146.656 416.991 209.135 473.253 298.414 480.238C407.542 489.548 510.584 438.196 601.915 384.564C686.981 335.022 772.047 278.058 870.471 260.202C1020.32 233.121 1152.75 327.756 1294.26 358.74C1354.07 371.906 1414.92 370.111 1471.86 345.87C1548.51 314.036 1610.4 256.058 1688.85 230.132C1710.58 223.077 1733.27 218.441 1756.16 218.972C1790.38 219.815 1825.28 230.475 1851.28 253.373C1859.92 261.014 1867.37 270.043 1873.29 280.095L1874.98 279.206V279.229Z" fill="#3C4045"/>
</g>
</g>
<defs>
<clipPath id="clip0_603_10800">
<rect width="1498" height="359" fill="white" transform="matrix(-1 0 0 1 1498 0)"/>
</clipPath>
</defs>
</svg>
