<svg width="476" height="169" viewBox="0 0 476 169" fill="none" xmlns="http://www.w3.org/2000/svg">
<path d="M-225.072 208.68C-131.271 136.483 -24.431 60.0156 99.5227 64.522C180.937 67.1881 257.593 99.9598 338.292 107.242C354.713 108.713 371.291 108.863 387.705 107.384C460.782 101.053 521.961 56.3349 587.127 26.7877C628.282 7.68461 672.371 -3.72687 717.994 1.10985C785.731 7.73183 847.209 40.6766 904.156 75.9099C990.659 129.979 1082.57 199.329 1190.08 188.413C1304.75 176.482 1409.47 70.7271 1528.3 115.917C1569.91 132.134 1604.33 164.512 1642.59 186.517C1661.72 197.245 1682.55 205.471 1704.36 208.452C1726.06 211.543 1749.22 208.412 1767.66 195.971L1768.38 197.001C1750.11 210.701 1726.28 214.901 1703.88 212.573C1658.17 208.507 1619.43 181.012 1582.62 156.349C1559.46 141.186 1535.91 127.148 1509.32 120.321C1472.09 110.687 1433.42 117.152 1397.38 129.389C1278.57 171.811 1206.71 234.342 1073.7 184.638C988.991 153.227 920.176 93.0626 841.774 50.0118C755.5 3.17823 680.48 -12.8813 588.692 30.2481C517.518 62.5244 452.737 113.031 371.574 116.239C315.5 119.362 259.567 104.757 205.309 92.4019C170.32 84.4115 135.023 76.9402 99.1138 75.4223L90.8953 75.1628H82.6847C81.3162 75.1549 79.9478 75.2099 78.5793 75.265L74.474 75.4144L70.3687 75.5717L66.2713 75.8627L62.1738 76.1537L60.1212 76.3031L58.0764 76.5233C3.00856 81.8162 -49.3459 102.736 -97.6659 128.917C-141.653 152.849 -182.95 181.272 -224.341 209.679L-225.08 208.664L-225.072 208.68Z" fill="#620059"/>
<path d="M-250.616 129.782C-214.179 175.145 -156.178 196.796 -99.4113 200.131C-65.2476 202.435 -30.8636 197.811 2.14404 189.026C72.2568 170.678 136.125 135.783 202.29 106.88C262.651 80.5968 327.069 59.0714 393.612 59.3703C397.544 59.5197 405.133 59.6298 409.105 59.9051L411.315 60.0938L415.727 60.4635C418.597 60.7387 421.798 60.896 424.543 61.2892L433.304 62.5083C438.133 63.0667 445.801 64.6553 450.693 65.5676C453.029 65.9529 456.914 66.9203 459.289 67.4708L467.853 69.4842C471.078 70.365 477.55 72.1345 480.562 72.9524C495.71 77.2779 511.478 82.5944 526.342 87.7929C550.636 96.326 575.779 105.693 600.474 113.046C700.944 145.558 791.63 120.116 891.385 101.359C928.812 94.4149 966.94 88.7838 1005.09 88.7838C1014.89 88.9333 1026.44 89.2714 1036.24 90.2938L1040.69 90.7736L1045.13 91.2533L1047.36 91.505L1049.57 91.851C1056.95 92.9128 1064.33 94.2104 1071.63 95.8383L1073.82 96.2945L1074.92 96.5226L1076.01 96.8057L1084.7 99.0943C1086.15 99.4875 1087.61 99.8414 1089.05 100.266L1093.33 101.65L1101.9 104.426C1163.21 126.164 1212.7 170.717 1266.65 204.889C1295.08 222.899 1325.7 238.227 1358.95 244.243C1451.26 260.295 1537.59 211.377 1622.41 182.058C1697.92 156.364 1791.76 140.454 1859.02 193.902L1857.97 195.286C1820.06 168.271 1771.64 162.294 1726.38 168.004C1686.46 172.88 1647.79 185.149 1610.65 200.288C1504.77 244.495 1399.7 298.768 1287.58 238.423C1215.74 201.633 1158.89 137.513 1080.24 114.831C1078.94 114.485 1072.09 112.551 1071.1 112.283C1069.36 111.89 1065.69 111.08 1063.89 110.679C1057.74 109.177 1051.41 108.296 1045.18 107.187C1042.24 106.809 1037.63 106.267 1034.65 105.897C958.124 98.0326 883.111 116.609 807.344 127.21C758.355 134.28 708.053 138.897 658.766 131.803C612.499 125.205 568.52 107.926 524.494 93.1801C515.348 90.1523 504.738 86.7784 495.513 84.0179C491.628 82.9326 484.786 81.0294 480.908 79.9598C476.371 78.8351 470.606 77.4431 466.21 76.3735L457.747 74.659L453.524 73.8018C448.679 72.8502 445.164 72.4569 440.776 71.7255C436.686 71.0571 435.939 71.0413 432.25 70.656L423.709 69.7751C422.294 69.5943 420.854 69.5706 419.431 69.4999L415.145 69.3032L410.866 69.1066C405.29 68.8078 402.915 69.0595 398.016 69.0437C392.345 68.9808 386.4 69.5156 380.902 69.8145C374.91 70.1605 369.609 71.002 363.852 71.5368L355.374 72.8423L351.135 73.4951C222.958 96.035 115.764 181.035 -11.8943 205.84C-75.2749 218.557 -144.766 212.533 -200.794 178.582C-220.951 166.313 -238.662 150.018 -252 130.804L-250.616 129.766V129.782Z" fill="#620059"/>
<path d="M-145.382 59.8027C-65.1004 100.549 15.7161 143.144 102.407 168.601C107.283 169.954 119.474 173.257 124.365 174.594L128.062 175.451L135.446 177.166C138.875 177.976 143.413 179.038 146.52 179.738C153.653 181.035 165.505 183.536 172.583 184.496C180.102 185.518 187.612 186.91 195.052 187.602C199.968 188.09 205.363 188.782 210.089 189.097C229.735 190.654 250.93 191.188 270.513 190.315C333.492 187.909 396.519 173.989 454.104 148.177C521 118.716 583.35 66.6292 660.038 69.2245C748.774 72.8658 818.486 139.156 903.659 156.254L911.005 157.544C912.231 157.748 913.443 158.008 914.677 158.165L918.381 158.629L922.086 159.101C923.32 159.243 924.547 159.455 925.79 159.526L933.238 160.115C937.603 160.485 941.96 160.501 946.309 160.705H948.181L955.667 160.69C956.918 160.705 958.168 160.627 959.411 160.587C965.561 160.422 972.089 159.974 978.144 159.494L985.632 158.716L989.375 158.322C1015.71 155.106 1041.75 149.42 1067.55 143.254C1136.09 126.825 1207.52 106.723 1278.36 121.603C1320.03 129.884 1359.31 146.478 1399.99 157.528C1438.83 168.145 1479.29 172.321 1519.49 170.355C1590.41 166.848 1660.01 144.504 1719.41 105.189L1720.23 106.345C1644.02 163.639 1545.05 189.616 1450.29 179.801C1421.94 177.087 1393.98 170.332 1366.84 161.972C1326.9 149.876 1287.76 135.358 1246.01 132.322C1225.01 130.71 1203.48 131.866 1182.59 134.501C1116.71 142.782 1053.22 165.314 986.961 171.731C961.055 174.24 934.567 174.122 908.936 169.278C860.364 160.359 817.204 134.43 774.066 111.976C736.167 92.252 695.774 73.6444 652.291 73.8331C584.829 73.959 528.196 117.466 470.847 147.587C409.283 179.989 340.665 199.698 271.056 202.883C245.661 204.22 218.835 203.198 193.581 200.13C184.545 199.179 175.658 197.504 166.716 196.198C160.126 195.003 150.082 192.832 143.917 191.637C136.941 189.993 128.313 187.815 121.361 186.108L117.641 185.038L102.777 180.752C78.4204 173.359 53.757 164.205 30.3599 154.193C-9.56859 137.214 -48.5769 116.892 -86.3977 95.6967C-106.405 84.4424 -126.366 72.8186 -146.082 61.0768L-145.398 59.8342L-145.382 59.8027Z" fill="#620059"/>
<path d="M-164.09 146.785C-147.865 122.24 -126.214 101.147 -101.661 84.9693C-52.1218 52.1583 9.83542 37.829 68.8906 46.9204C138.044 56.9635 192.632 105.126 256.044 129.742C316.861 153.682 364.733 138.818 419.777 109.405C469.811 83.011 521.025 48.5091 580.033 51.1988C695.706 55.4692 792.826 184.881 904.581 171.975C973.514 163.206 1019.8 104.127 1081.17 76.7193C1127.8 54.7771 1179.98 57.4511 1228.95 69.2637C1321 91.2845 1415.43 147.257 1509.54 104.599C1526.99 96.5066 1542.79 84.7019 1554.72 69.5311L1555.86 70.3726C1550.26 78.4574 1543.62 85.8108 1536.15 92.2362C1505.7 118.119 1464.81 128.39 1425.46 128.39C1395.84 128.154 1366.31 122.2 1337.93 114.493C1291.13 101.87 1245.84 84.2064 1197.71 77.6002C1148.05 70.4198 1105.4 76.9946 1062.52 103.899C1020.84 128.924 983.369 163.725 935.969 178.99C874.79 198.856 817.056 174.201 765.087 142.554C704.514 106.66 642.809 54.8794 569.047 55.7366C535.032 56.3579 502.968 69.6963 473.35 85.6614C430.26 108.571 389.538 138.456 340.911 148.625C258.749 166.179 191.429 106.613 121.253 75.2015C24.7939 30.3733 -98.5543 63.4204 -162.934 147.619L-164.09 146.801V146.785Z" fill="#620059"/>
</svg>
