<svg width="476" height="123" viewBox="0 0 476 123" fill="none" xmlns="http://www.w3.org/2000/svg">
<path d="M-147.043 74.2858C-127.66 91.6542 -113.406 111.173 -90.9908 127.247C-80.0456 134.978 -67.8556 142.8 -51.9945 146.76C-20.037 154.791 17.3478 148.322 41.601 134.19C73.6536 116.066 89.655 89.9069 123.681 72.7603C145.635 61.8106 174.845 59.0359 201.461 65.1195C218.499 68.8992 232.436 76.5219 243.685 84.8055C276.308 109.661 293.622 140.441 328.838 164.138C351.634 179.927 385.022 190.098 420.361 188.613C493.356 185.2 536.444 144.217 575.277 111.947C592.782 96.6334 617.071 74.8018 636.286 60.4708C647.345 52.1645 659.734 44.3019 674.4 37.8154C708.72 22.8415 748.667 30.8852 773.31 49.6613C796.01 65.9162 809.309 85.8647 831.693 101.929C839.189 107.289 847.491 112.227 857.264 115.989L860.016 116.885L865.52 118.687C899.415 128.405 938.208 119.334 966.146 106.479C1007.85 87.363 1041.13 62.2995 1083.86 43.7678L1084.41 44.1933C1042.97 63.8928 1011 89.3728 969.721 109.24C936.071 125.382 892.702 134.29 853.041 120.081C803.964 101.762 792.163 63.6439 747.852 42.8941C705.203 24.7743 670.398 43.7995 643.194 63.7887C615.668 84.0768 592.555 106.538 566.134 127.36C540.102 148.508 511.607 169.982 471.873 182.425C440.377 192.592 401.059 193.923 368.541 184.648C303.046 164.971 284.315 118.266 239.851 86.7021C231.594 80.8221 221.835 75.6121 210.863 71.7057C192.643 65.7261 169.318 64.1509 150.121 68.7046C117.231 76.5944 100.406 96.4886 80.4117 112.798C70.562 121.453 59.4809 130.207 46.6255 137.404C13.6043 156.579 -42.267 161.322 -76.7141 140.799C-96.1873 129.913 -110.55 116.165 -122.767 102.219C-131.019 92.9443 -138.8 83.5698 -147.795 74.58L-147.039 74.2949L-147.043 74.2858Z" fill="#EAEAEA"/>
<path d="M972.704 179.664C940.951 161.001 919.246 140.55 874.759 127.735C842.014 119.085 799.256 119.665 765.044 126.898C730.733 134.027 706.67 148.236 682.471 160.648C661.744 171.462 637.481 181.995 605.221 185.951C575.214 189.595 541.903 187.794 514.744 181.208C491.934 175.5 473.362 166.786 457.972 157.715C429.644 141.215 407.469 123.236 373.081 109.235C338.452 94.6734 288.882 88.1914 241.403 91.3283C149.061 97.3667 88.4056 134.317 30.6286 163.115C-0.0885754 178.442 -30.249 195.213 -72.2554 204.918C-100.682 211.228 -136.021 209.888 -162.402 202.27C-175.66 198.562 -186.786 193.633 -196.885 188.427C-165.647 204.999 -120.02 214.356 -73.111 204.157C-31.7609 194.267 -2.43332 177.455 27.6547 162.024C42.5969 154.134 57.4439 146.109 73.0289 138.459C115.841 116.469 166.828 94.1347 234.324 88.4494C287.017 84.0043 340.028 90.1786 379.631 106.098C414.874 119.981 438.879 138.554 467.242 154.623C484.579 164.446 504.541 173.558 530.89 178.437C559.901 183.43 594.117 183.254 621.367 176.314C647.485 170.05 666.709 158.348 685.635 148.44C705.968 137.54 728.017 126.649 757.58 120.298C779.837 115.387 805.235 113.087 830.168 113.762C855.467 114.301 880.367 118.433 899.755 125.635C937.637 138.432 961.42 158.348 989.113 174.123C997.143 178.94 981.676 184.399 972.7 179.669L972.704 179.664Z" fill="#EAEAEA"/>
<path d="M-17.7871 94.6327C-8.73397 108.724 15.7049 117.139 39.9039 121.376C76.8722 127.953 117.082 124.689 151.941 115.763C212.945 100.734 256.481 71.0041 310.977 49.8696C377.825 22.9547 468.166 10.5474 538.382 40.7938C582.964 58.4564 608.48 87.191 642.461 109.878C659.055 120.905 678.596 130.184 701.655 136.295C763.849 153.197 826.257 142.302 857.024 106.737C868.983 93.6504 873.809 79.2514 877.86 64.6488C884.084 42.3872 890.344 18.3557 915.992 0.204184C916.318 -0.0311965 916.92 -0.06741 917.332 0.118179C917.712 0.290188 917.798 0.593466 917.553 0.82432C903.639 13.6707 897.641 28.3548 894.364 43.1386C889.389 65.8076 889.81 89.6082 872.36 110.865C847.704 142.655 794.553 161.196 733.11 154.284C691.411 149.644 654.71 135.005 628.682 116.428C602.681 98.4893 585.127 78.5317 559.457 61.0501C540.799 48.4165 517.84 37.3717 490.468 31.4239C444.175 21.0761 391.223 27.8705 349.434 41.8168C303.521 57.2388 269.717 81.1797 228.286 100.114C191.123 117.125 146.332 130.569 97.8483 132.285C57.6434 133.398 10.943 125.513 -11.9795 105.673C-15.6098 102.35 -18.2262 98.6839 -19.6158 94.9224C-19.7245 94.6327 -19.394 94.343 -18.878 94.2841C-18.4027 94.2253 -17.9365 94.3837 -17.7826 94.6372L-17.7871 94.6327Z" fill="#EAEAEA"/>
<path d="M-299.249 50.8699C-279.866 68.2383 -265.612 87.7568 -243.196 103.831C-232.251 111.562 -220.061 119.384 -204.2 123.345C-172.242 131.375 -134.858 124.906 -110.604 110.774C-78.5518 92.65 -62.5505 66.4911 -28.5244 49.3445C-6.57056 38.3947 22.6393 35.6199 49.2554 41.7036C66.2934 45.4833 80.2307 53.106 91.4792 61.3896C124.102 86.2449 141.416 117.026 176.633 140.722C199.428 156.511 232.816 166.682 268.155 165.197C341.15 161.784 384.239 120.801 423.072 88.5309C440.576 73.2175 464.866 51.386 484.081 37.0549C495.139 28.7487 507.528 20.886 522.195 14.3995C556.515 -0.574397 596.462 7.46931 621.104 26.2455C643.805 42.5003 657.104 62.4488 679.488 78.5136C686.984 83.873 695.286 88.8115 705.058 92.5731L707.81 93.4694L713.315 95.2709C747.21 104.989 786.002 95.9182 813.94 83.0628C855.643 63.9471 888.927 38.8836 931.658 20.3519L932.201 20.7774C890.76 40.477 858.798 65.9569 817.516 85.824C783.866 101.966 740.497 110.874 700.835 96.6651C651.758 78.3461 639.957 40.228 595.647 19.4783C552.998 1.35846 518.193 20.3836 490.988 40.3728C463.462 60.6609 440.35 83.1217 413.928 103.944C387.896 125.092 359.401 146.566 319.667 159.009C288.172 169.176 248.854 170.507 216.335 161.232C150.84 141.555 132.11 94.8499 87.6452 63.2863C79.3887 57.4063 69.6295 52.1962 58.6571 48.2898C40.4377 42.3102 17.1124 40.7349 -2.08475 45.2887C-34.9747 53.1784 -51.7999 73.0727 -71.7937 89.3819C-81.6435 98.0366 -92.7245 106.791 -105.58 113.988C-138.601 133.163 -194.472 137.907 -228.919 117.383C-248.393 106.497 -262.755 92.7496 -274.973 78.8033C-283.225 69.5284 -291.006 60.1539 -300 51.1642L-299.244 50.879L-299.249 50.8699Z" fill="#EAEAEA"/>
</svg>
